<?xml version="1.0" encoding="utf-8"?>
<!-- Generator: Adobe Illustrator 18.0.0, SVG Export Plug-In . SVG Version: 6.00 Build 0)  -->
<!DOCTYPE svg PUBLIC "-//W3C//DTD SVG 1.1//EN" "http://www.w3.org/Graphics/SVG/1.1/DTD/svg11.dtd">
<svg version="1.1" id="Layer_1" xmlns="http://www.w3.org/2000/svg" xmlns:xlink="http://www.w3.org/1999/xlink" x="0px" y="0px"
	 viewBox="0 0 77 76.8" enable-background="new 0 0 77 76.8" xml:space="preserve">
<g>
	<rect x="-2.2" y="37.7" transform="matrix(0.7071 0.7071 -0.7071 0.7071 38.7489 -16.12)" fill="#208BA8" width="82" height="2"/>
	<polygon fill="#208BA8" points="11,21.9 0.1,0 22,10.9 13.1,12.8 	"/>
	<polygon fill="#208BA8" points="60.2,69.1 58.2,68.8 59.3,59.2 68.9,58 69.2,60 61.1,61 	"/>
	<polygon fill="#208BA8" points="63.7,72.6 61.7,72.4 62.9,62.7 72.5,61.6 72.7,63.6 64.7,64.5 	"/>
	<polygon fill="#208BA8" points="67.9,76.8 65.9,76.6 67.1,67 76.7,65.8 77,67.8 68.9,68.8 	"/>
</g>
<g>
	
		<rect x="37.1" y="-2.3" transform="matrix(0.7071 0.7071 -0.7071 0.7071 38.5418 -15.6201)" fill="#208BA8" width="2" height="82"/>
	<polygon fill="#208BA8" points="54.9,10.9 76.8,0 66,21.9 64,13 	"/>
	<polygon fill="#208BA8" points="16.8,69.1 15.8,61 7.8,60 8,58 17.6,59.2 18.8,68.8 	"/>
	<polygon fill="#208BA8" points="13.3,72.6 12.3,64.5 4.2,63.6 4.5,61.6 14.1,62.7 15.3,72.4 	"/>
	<polygon fill="#208BA8" points="9,76.8 8.1,68.8 0,67.8 0.2,65.8 9.9,67 11,76.6 	"/>
</g>
</svg>
