<?xml version="1.0" encoding="utf-8"?>
<!-- Generator: Adobe Illustrator 18.0.0, SVG Export Plug-In . SVG Version: 6.00 Build 0)  -->
<!DOCTYPE svg PUBLIC "-//W3C//DTD SVG 1.1//EN" "http://www.w3.org/Graphics/SVG/1.1/DTD/svg11.dtd">
<svg version="1.1" id="Layer_1" xmlns="http://www.w3.org/2000/svg" xmlns:xlink="http://www.w3.org/1999/xlink" x="0px" y="0px"
	 viewBox="0 0 58.4 58.4" enable-background="new 0 0 58.4 58.4" xml:space="preserve">
<g>
	<polygon fill="#208BA8" points="52.4,44.5 45.9,45.3 46.1,45 30.3,29.2 48.8,10.6 50.1,16.7 58.4,0 41.7,8.3 47.7,9.6 29.2,28.1 
		10.7,9.6 16.7,8.3 0,0 8.3,16.7 9.7,10.7 28.1,29.2 12.3,45 12.5,45.3 6,44.5 5.9,45.2 12.3,46 13.1,52.4 13.9,52.4 13.1,45.8 
		13.3,46.1 29.2,30.2 45.1,46.1 45.3,45.8 44.5,52.4 45.3,52.4 46.1,46 52.5,45.2 	"/>
	<polygon fill="#208BA8" points="55.1,47.2 48.1,48 47.2,55 48,55.1 48.8,48.7 55.2,47.9 	"/>
	<polygon fill="#208BA8" points="58.3,50.4 51.3,51.2 50.5,58.3 51.2,58.4 52,51.9 58.4,51.2 	"/>
	<polygon fill="#208BA8" points="3.3,47.2 3.2,47.9 9.6,48.7 10.4,55.1 11.2,55 10.3,48 	"/>
	<polygon fill="#208BA8" points="0.1,50.4 0,51.2 6.4,51.9 7.2,58.4 7.9,58.3 7.1,51.2 	"/>
</g>
</svg>
